<svg viewBox="0 0 177 176" fill="none" xmlns="http://www.w3.org/2000/svg">
<path d="M164.265 88.5377L163.591 93.6491L161.64 93.3921C163.021 94.0487 163.607 95.1688 163.398 96.7524C163.188 98.3502 162.297 99.2181 160.725 99.3563C162.187 100.052 162.813 101.192 162.605 102.776C162.331 104.854 161.013 105.738 158.652 105.427L152.268 104.586L152.111 105.774L151.73 105.723L152.504 99.8483L152.885 99.8986L152.788 100.641L159.681 101.549C160.755 101.691 161.397 101.682 161.605 101.522C161.701 101.448 161.758 101.341 161.777 101.199C161.831 100.789 161.602 100.393 161.092 100.009C160.581 99.6251 159.902 99.3774 159.054 99.2656L153.073 98.4776L152.972 99.2411L152.59 99.1908L153.308 93.74L153.69 93.7903L153.592 94.5327L160.485 95.4408C161.56 95.5824 162.201 95.5734 162.409 95.4138C162.505 95.3402 162.563 95.2326 162.581 95.0912C162.633 94.6953 162.377 94.2947 161.812 93.8894C161.259 93.5001 160.565 93.2505 159.731 93.1406L153.877 92.3693L153.777 93.1329L153.395 93.0826L154.169 87.2076L154.551 87.2579L154.397 88.4244L163.729 89.6539L163.883 88.4874L164.265 88.5377Z" fill="#FEFAF0"/>
<path d="M152.91 112.221L154.617 112.847C155.916 113.323 156.887 113.596 157.53 113.664C158.182 113.751 158.601 113.54 158.788 113.032C158.896 112.737 158.897 112.464 158.792 112.213C158.695 111.98 158.467 111.752 158.108 111.529C157.55 111.188 156.655 110.791 155.423 110.34L153.856 109.765C152.397 109.23 151.505 108.949 151.181 108.921C150.852 108.907 150.577 108.912 150.355 108.937C149.979 108.966 149.713 109.195 149.556 109.624C149.365 110.146 149.541 110.598 150.084 110.98C150.469 111.257 151.411 111.671 152.91 112.221ZM149.209 109.451C149.823 107.777 150.715 106.669 151.887 106.126C153.058 105.584 154.44 105.604 156.033 106.189C157.64 106.778 158.705 107.685 159.228 108.91C159.76 110.153 159.721 111.604 159.112 113.265C158.504 114.925 157.648 116.016 156.545 116.538C155.455 117.066 154.094 117.03 152.46 116.431C149.046 115.179 147.962 112.852 149.209 109.451Z" fill="#FEFAF0"/>
<path d="M149.857 117.626L155.782 120.837L156.342 119.803L156.681 119.986L156.12 121.02L158.546 122.336L157.515 126.303L154.224 124.519L152.899 126.964L152.56 126.78L153.885 124.335L147.547 120.9C146.958 120.58 146.495 120.402 146.158 120.366C145.814 120.341 145.54 120.517 145.336 120.894C145.132 121.27 145.144 121.698 145.37 122.177C145.59 122.67 146.002 123.136 146.607 123.578L146.396 123.877C145.585 123.308 145.045 122.658 144.776 121.928C144.519 121.205 144.672 120.323 145.236 119.282C145.801 118.241 146.439 117.557 147.152 117.23C147.865 116.903 148.766 117.035 149.857 117.626Z" fill="#FEFAF0"/>
<path d="M157.322 131.977L154.213 136.09L147.967 131.37C148.353 131.947 148.563 132.544 148.598 133.16C148.633 133.776 148.362 134.466 147.786 135.228C146.453 136.992 144.837 137.156 142.937 135.72L137.799 131.837L137.077 132.793L136.77 132.561L140.42 127.731L140.727 127.963L140.198 128.663L145.745 132.855C146.428 133.371 146.9 133.656 147.162 133.711C147.436 133.775 147.663 133.687 147.844 133.448C148.119 133.084 148.125 132.579 147.862 131.934C147.591 131.3 147.113 130.725 146.431 130.209L141.72 126.649L141.166 127.383L140.858 127.151L144.521 122.304L144.829 122.536L144.119 123.474L156.305 132.683L157.015 131.745L157.322 131.977Z" fill="#FEFAF0"/>
<path d="M132.821 135.123C134.16 133.86 135.489 133.253 136.809 133.302C138.129 133.37 139.366 134.017 140.521 135.241C141.685 136.475 142.203 137.772 142.072 139.13C141.932 140.498 141.28 141.73 140.119 142.826C137.764 145.048 135.517 144.932 133.379 142.479L137.767 138.339L137.195 137.732C136.236 136.715 135.382 136.07 134.633 135.796C133.884 135.522 133.188 135.688 132.545 136.295C131.342 137.431 131.16 138.818 132 140.456L131.676 140.674C131.169 139.741 130.979 138.822 131.106 137.918C131.223 137.024 131.794 136.092 132.821 135.123ZM138.045 138.665L136.443 140.177L137.162 140.939C137.955 141.779 138.545 142.301 138.932 142.504C139.319 142.727 139.663 142.697 139.964 142.413C140.255 142.139 140.316 141.767 140.148 141.298C139.979 140.85 139.518 140.226 138.765 139.427L138.045 138.665Z" fill="#FEFAF0"/>
<path d="M129.328 150.127C129.763 149.828 129.95 149.283 129.891 148.493C129.831 147.703 129.534 146.92 129 146.145L125.747 141.424L124.497 142.285L124.278 141.968L129.774 138.182L129.993 138.499L129.024 139.166L134.364 146.917L135.333 146.25L135.552 146.567L131.306 149.492L130.141 147.801C130.401 148.505 130.423 149.165 130.207 149.782C129.999 150.41 129.619 150.914 129.067 151.294C128.515 151.675 127.96 151.824 127.401 151.741C126.838 151.679 126.358 151.36 125.962 150.784C125.573 150.22 125.403 149.697 125.451 149.214C125.499 148.73 125.793 148.302 126.334 147.93C126.862 147.566 127.377 147.471 127.878 147.645C128.367 147.828 128.733 148.295 128.973 149.047L128.339 149.484C128.458 150.285 128.788 150.5 129.328 150.127Z" fill="#FEFAF0"/>
<path d="M125.167 153.068L125.478 153.242C124.716 154.633 124.54 155.713 124.948 156.481C125.163 156.884 125.454 157.02 125.82 156.889L126.221 155.73C126.52 155.684 126.837 155.718 127.171 155.83C127.5 155.962 127.762 156.211 127.956 156.576C128.15 156.941 128.17 157.326 128.014 157.732C127.866 158.151 127.558 158.484 127.093 158.732C126.614 158.987 126.137 159.031 125.66 158.865C125.178 158.717 124.786 158.361 124.485 157.794C123.828 156.561 124.055 154.985 125.167 153.068Z" fill="#FEFAF0"/>
<path d="M116.783 146.683L118.195 150.242L117.956 150.337C117.154 149.32 116.369 148.696 115.602 148.463C114.834 148.23 114.013 148.288 113.138 148.635C111.786 149.171 111.281 149.87 111.623 150.732C111.77 151.103 112.046 151.316 112.451 151.37C113.084 151.456 113.836 151.419 114.708 151.257C115.704 151.138 116.586 151.156 117.354 151.312C118.272 151.5 118.936 152.111 119.347 153.145C119.757 154.179 119.765 155.127 119.371 155.989C118.981 156.865 118.257 157.513 117.196 157.934C116.547 158.192 115.817 158.305 115.006 158.273C114.712 158.267 114.499 158.29 114.367 158.343C114.234 158.396 114.14 158.487 114.084 158.616C114.028 158.746 113.983 158.963 113.951 159.268L113.732 159.354L112.525 156.312L112.764 156.217C114.123 157.672 115.513 158.119 116.931 157.556C117.554 157.309 117.973 157.012 118.189 156.665C118.41 156.332 118.454 156 118.323 155.669C118.244 155.47 118.134 155.329 117.994 155.247C117.859 155.177 117.755 155.127 117.681 155.095C117.607 155.063 117.497 155.037 117.351 155.019C117.211 155.013 117.093 155.006 116.998 154.998C116.908 155.003 116.773 155.01 116.593 155.02C116.399 155.036 116.26 155.053 116.175 155.071C115.184 155.203 114.456 155.262 113.99 155.247C113.529 155.246 113.072 155.197 112.62 155.101C111.691 154.886 111.003 154.216 110.556 153.089C110.114 151.975 110.109 150.995 110.54 150.149C110.977 149.316 111.772 148.671 112.925 148.213C113.747 147.887 114.619 147.764 115.54 147.843C115.741 147.886 115.888 147.889 115.981 147.852C116.273 147.737 116.46 147.378 116.544 146.777L116.783 146.683Z" fill="#FEFAF0"/>
<path d="M100.784 156.291C100.565 154.81 100.342 153.833 100.114 153.363C99.8883 152.906 99.5708 152.707 99.1616 152.768C98.7383 152.83 98.4056 153.067 98.1634 153.477C97.907 153.89 97.8319 154.456 97.938 155.175L98.6181 159.789C98.7075 160.396 98.9033 160.893 99.2056 161.281C99.5078 161.669 99.8918 161.829 100.357 161.76C100.823 161.691 101.095 161.334 101.172 160.688C101.25 160.043 101.175 158.944 100.946 157.392L100.784 156.291ZM97.2386 152.338L97.6897 153.785C98.0031 152.585 98.8934 151.877 100.361 151.661C101.574 151.482 102.584 151.78 103.39 152.555C104.182 153.332 104.706 154.589 104.962 156.324C105.48 159.837 104.342 161.8 101.548 162.211C100.307 162.394 99.4374 162.169 98.9405 161.536L99.8608 167.78L101.152 167.589L101.208 167.97L95.917 168.75L93.6334 153.258L92.5964 153.411L92.5402 153.03L97.2386 152.338Z" fill="#FEFAF0"/>
<path d="M87.2093 157.871L86.5892 157.851L86.5383 159.498C86.4965 160.852 86.5469 161.76 86.6896 162.221C86.8177 162.695 87.0955 162.939 87.5231 162.953C87.7797 162.961 88.0171 162.897 88.2354 162.761C88.4389 162.639 88.5444 162.456 88.5519 162.214C88.5589 161.986 88.5234 161.749 88.4454 161.504L87.9108 161.488C87.806 161.185 87.7602 160.82 87.7734 160.392C87.7862 159.979 87.9756 159.621 88.3417 159.318C88.7073 159.03 89.161 158.894 89.7026 158.911C90.9286 158.949 91.5232 159.559 91.4867 160.742C91.4325 162.496 89.9158 163.326 86.9366 163.234C85.2402 163.182 84.0804 162.854 83.457 162.249C82.8188 161.659 82.5236 160.594 82.5711 159.054L82.7052 154.714C82.7281 153.972 82.5328 153.595 82.1194 153.583C81.6348 153.568 81.327 154.293 81.1961 155.759L80.876 155.727C80.9718 154.475 81.2337 153.619 81.6616 153.162C82.0895 152.704 82.7739 152.49 83.7147 152.519C85.4253 152.572 86.3926 153.13 86.6166 154.192C86.8186 153.656 87.1089 153.266 87.4875 153.021C87.866 152.776 88.4117 152.664 89.1244 152.686C91.2341 152.751 92.2623 153.646 92.2091 155.371C92.1778 156.383 91.7573 157.062 90.9476 157.408C90.1232 157.768 88.8771 157.922 87.2093 157.871ZM88.1458 155.267C88.1687 154.526 88.1478 154.047 88.0831 153.831C88.0042 153.615 87.8578 153.503 87.644 153.496C87.4159 153.489 87.2037 153.661 87.0074 154.012C86.7964 154.376 86.681 154.879 86.6612 155.521L86.5997 157.509L86.7494 157.514C87.6332 157.541 88.0951 156.906 88.1352 155.609L88.1458 155.267Z" fill="#FEFAF0"/>
<path d="M79.4181 162.021L79.3445 162.399L73.255 161.213L73.3286 160.835L74.4625 161.056L73.531 153.639L69.7379 160.136L71.1448 160.41L71.0712 160.788L68.1105 160.211L68.1841 159.833L69.234 160.038L75.3642 149.484C76.0824 148.258 76.7789 147.442 77.4537 147.036C78.1312 146.616 78.8829 146.486 79.7089 146.647C80.5348 146.808 81.1489 147.123 81.5513 147.594C81.9537 148.065 82.0976 148.594 81.9832 149.182C81.8687 149.77 81.6275 150.188 81.2595 150.436C80.8916 150.684 80.4557 150.759 79.9517 150.661C78.7898 150.434 78.3029 149.838 78.4909 148.872C78.5318 148.662 78.6229 148.419 78.7641 148.141L79.4991 148.284C79.6737 147.984 79.7395 147.721 79.6964 147.494C79.6533 147.268 79.4848 147.126 79.1908 147.069C78.6168 146.957 78.05 147.145 77.4903 147.632C76.9333 148.104 76.3387 148.882 75.7065 149.965L74.9911 151.177L76.8389 151.537L78.5572 161.853L79.4181 162.021Z" fill="#FEFAF0"/>
<path d="M52.3283 154.482L48.148 151.465L49.2999 149.869C48.0669 150.773 46.8029 150.758 45.5077 149.823C44.201 148.879 43.8597 147.683 44.4836 146.234C43.1774 147.191 41.8767 147.202 40.5816 146.267C38.8817 145.04 38.7288 143.461 40.1228 141.529L43.8916 136.308L42.9202 135.607L43.1456 135.295L47.9503 138.763L47.7249 139.076L47.1178 138.637L43.0485 144.275C42.4142 145.153 42.1179 145.722 42.1597 145.981C42.179 146.101 42.2465 146.202 42.3621 146.286C42.6974 146.528 43.1551 146.515 43.735 146.248C44.315 145.98 44.8554 145.5 45.3562 144.806L48.8871 139.914L48.2626 139.464L48.488 139.151L52.9458 142.369L52.7204 142.682L52.1133 142.243L48.0441 147.881C47.4097 148.759 47.1134 149.328 47.1552 149.587C47.1745 149.707 47.242 149.808 47.3576 149.892C47.6814 150.125 48.1557 150.089 48.7806 149.784C49.3856 149.482 49.9343 148.99 50.4268 148.308L53.8826 143.52L53.2581 143.07L53.4835 142.757L58.2882 146.226L58.0628 146.538L57.1088 145.849L51.5997 153.481L52.5537 154.17L52.3283 154.482Z" fill="#FEFAF0"/>
<path d="M36.297 133.189L34.9386 134.398C33.9053 135.318 33.2063 136.045 32.8419 136.579C32.4573 137.113 32.4451 137.582 32.8054 137.986C33.014 138.221 33.2539 138.351 33.5252 138.377C33.7763 138.402 34.0847 138.308 34.4506 138.097C35.0153 137.767 35.7878 137.165 36.7679 136.293L38.0143 135.183C39.1756 134.15 39.8449 133.497 40.0224 133.224C40.1904 132.941 40.3158 132.696 40.3986 132.489C40.55 132.144 40.474 131.801 40.1706 131.46C39.8008 131.045 39.3193 130.986 38.7261 131.285C38.2999 131.493 37.4902 132.127 36.297 133.189ZM40.4867 131.236C41.6718 132.568 42.2269 133.878 42.1519 135.167C42.0769 136.455 41.4055 137.664 40.1377 138.792C38.8593 139.93 37.5568 140.44 36.2303 140.322C34.8836 140.203 33.6224 139.484 32.4467 138.162C31.271 136.841 30.7135 135.572 30.7744 134.353C30.8246 133.144 31.4995 131.961 32.7993 130.804C35.5159 128.386 38.0784 128.53 40.4867 131.236Z" fill="#FEFAF0"/>
<path d="M33.9162 127.918L28.2981 131.64L28.9478 132.62L28.6268 132.833L27.9771 131.852L25.6763 133.376L22.6587 130.602L25.7799 128.535L24.2442 126.216L24.5652 126.004L26.1009 128.322L32.1114 124.341C32.6702 123.971 33.045 123.646 33.2357 123.366C33.4185 123.074 33.3918 122.749 33.1556 122.392C32.9193 122.036 32.5362 121.845 32.0062 121.819C31.4684 121.782 30.8628 121.927 30.1894 122.253L30.0242 121.926C30.9076 121.478 31.7348 121.306 32.5059 121.411C33.265 121.524 33.9713 122.074 34.625 123.061C35.2786 124.048 35.5825 124.933 35.5367 125.716C35.4908 126.499 34.9506 127.233 33.9162 127.918Z" fill="#FEFAF0"/>
<path d="M18.2333 127.906L16.0842 123.22L23.2012 119.956C22.5098 120.022 21.8845 119.924 21.3253 119.663C20.7662 119.402 20.2874 118.837 19.8891 117.968C18.9677 115.959 19.5894 114.458 21.7543 113.465L27.6074 110.781L27.108 109.692L27.458 109.531L29.9816 115.034L29.6316 115.195L29.266 114.398L22.9462 117.296C22.1684 117.652 21.6931 117.933 21.5203 118.138C21.3345 118.349 21.304 118.59 21.4289 118.862C21.6191 119.277 22.0608 119.522 22.7539 119.596C23.441 119.658 24.1735 119.51 24.9513 119.153L30.3182 116.692L29.9348 115.856L30.2848 115.696L32.8173 121.218L32.4673 121.379L31.9768 120.309L18.0929 126.676L18.5833 127.746L18.2333 127.906Z" fill="#FEFAF0"/>
<path d="M26.9225 104.371C27.397 106.148 27.299 107.606 26.6287 108.744C25.9409 109.873 24.784 110.654 23.158 111.088C21.5183 111.526 20.132 111.364 18.9991 110.604C17.8625 109.83 17.0882 108.671 16.6763 107.128C15.8414 104 17.0113 102.079 20.1861 101.364L21.7419 107.193L22.548 106.977C23.8983 106.617 24.872 106.173 25.469 105.644C26.066 105.116 26.2505 104.424 26.0225 103.57C25.5958 101.972 24.462 101.153 22.6209 101.113L22.5836 100.724C23.6456 100.721 24.5442 100.99 25.2792 101.532C26.0106 102.06 26.5584 103.006 26.9225 104.371ZM21.323 107.282L20.7547 105.153L19.7419 105.424C18.6258 105.722 17.8864 105.993 17.5235 106.237C17.1433 106.472 17.0065 106.789 17.1131 107.188C17.2161 107.574 17.5138 107.804 18.0062 107.88C18.4812 107.945 19.2492 107.836 20.3102 107.553L21.323 107.282Z" fill="#FEFAF0"/>
<path d="M14.5453 94.2384C14.6021 94.763 14.9924 95.1869 15.716 95.5102C16.4396 95.8334 17.2692 95.9443 18.205 95.8429L23.9049 95.2253L23.7412 93.7153L24.1241 93.6738L24.8431 100.309L24.4603 100.351L24.3335 99.1811L14.9756 100.195L15.1024 101.365L14.7195 101.406L14.1641 96.2808L16.2058 96.0596C15.4628 95.9536 14.8714 95.6591 14.4317 95.1759C13.9779 94.6943 13.7148 94.1203 13.6426 93.4539C13.5704 92.7875 13.7034 92.228 14.0417 91.7754C14.3643 91.31 14.8729 91.0398 15.5677 90.9645C16.2482 90.8907 16.7897 90.9898 17.1922 91.2618C17.5946 91.5338 17.8312 91.9959 17.9019 92.6481C17.971 93.2862 17.8098 93.7842 17.4182 94.1422C17.0252 94.4861 16.4406 94.5853 15.6645 94.4398L15.5816 93.6742C14.82 93.3981 14.4746 93.5861 14.5453 94.2384Z" fill="#FEFAF0"/>
<path d="M14.3439 88.3273L14.0429 88.5175C13.1832 87.1845 12.3184 86.5146 11.4485 86.5079C10.9921 86.5044 10.7339 86.6949 10.6739 87.0795L11.5013 87.9844C11.3992 88.2689 11.2189 88.5313 10.9604 88.7718C10.6876 88.9979 10.3445 89.1093 9.93091 89.1061C9.51733 89.1029 9.1692 88.9362 8.88651 88.606C8.58955 88.2757 8.44311 87.8467 8.44719 87.3191C8.45137 86.7771 8.64018 86.3365 9.01362 85.9971C9.3729 85.6433 9.87342 85.4689 10.5152 85.4738C11.9128 85.4846 13.189 86.4358 14.3439 88.3273Z" fill="#FEFAF0"/>
<path d="M24.1404 84.9769L20.3367 84.5351L20.3663 84.2801C21.6415 84.0549 22.5633 83.6595 23.1315 83.0937C23.6997 82.528 24.0381 81.7777 24.1467 80.8427C24.3146 79.3977 23.9381 78.6217 23.0173 78.5148C22.6206 78.4687 22.3025 78.6112 22.0631 78.9424C21.6872 79.4586 21.3641 80.139 21.0938 80.9834C20.7269 81.9171 20.2931 82.6851 19.7924 83.2874C19.1919 84.0073 18.3392 84.3031 17.2342 84.1748C16.1292 84.0464 15.2904 83.6044 14.7177 82.8487C14.1309 82.0914 13.9033 81.1461 14.0349 80.0128C14.1155 79.3186 14.3616 78.6221 14.7729 77.9233C14.9175 77.6673 14.9981 77.4685 15.0145 77.3268C15.031 77.1852 14.9954 77.059 14.9077 76.9483C14.8201 76.8376 14.6499 76.6958 14.3972 76.5229L14.4243 76.2892L17.6755 76.6668L17.6459 76.9218C15.7204 77.4304 14.6696 78.4426 14.4935 79.9584C14.4162 80.6242 14.479 81.134 14.682 81.4878C14.8708 81.8399 15.1423 82.0366 15.4965 82.0777C15.7089 82.1024 15.8847 82.0726 16.0237 81.9882C16.1486 81.9022 16.2426 81.8342 16.3059 81.7841C16.3691 81.734 16.4436 81.6493 16.5292 81.5301C16.6007 81.4091 16.6626 81.3086 16.715 81.2286C16.7532 81.1469 16.8105 81.0243 16.8869 80.8609C16.9649 80.6833 17.016 80.5529 17.04 80.4695C17.3927 79.5342 17.6859 78.8647 17.9194 78.4611C18.1388 78.0558 18.3981 77.6768 18.6976 77.3239C19.3264 76.6073 20.2429 76.3189 21.447 76.4587C22.637 76.597 23.5025 77.0564 24.0436 77.8371C24.5705 78.6162 24.7623 79.622 24.6192 80.8545C24.5172 81.7328 24.213 82.5589 23.7068 83.3328C23.5737 83.4897 23.5014 83.6177 23.4899 83.7168C23.4537 84.0285 23.6804 84.3635 24.17 84.7219L24.1404 84.9769Z" fill="#FEFAF0"/>
<path d="M23.013 66.044C24.4209 66.5543 25.3862 66.8207 25.9089 66.8433C26.4182 66.861 26.7434 66.6755 26.8843 66.2866C27.0301 65.8844 26.9797 65.4793 26.7331 65.0714C26.4914 64.6501 26.0287 64.3155 25.3448 64.0677L20.9603 62.4786C20.3838 62.2696 19.8531 62.2062 19.3682 62.2884C18.8834 62.3706 18.5608 62.6329 18.4004 63.0753C18.24 63.5178 18.4257 63.9264 18.9573 64.3011C19.489 64.6758 20.4923 65.1305 21.9672 65.665L23.013 66.044ZM28.1749 64.7975L26.6868 64.5085C27.5943 65.3532 27.7953 66.4727 27.2899 67.8672C26.872 69.0203 26.1307 69.768 25.0662 70.1103C24.0065 70.4392 22.652 70.3048 21.0028 69.707C17.6642 68.497 16.4759 66.5646 17.4381 63.9098C17.8657 62.7299 18.4761 62.0712 19.2692 61.9339L13.336 59.7836L12.8914 61.0105L12.5294 60.8793L14.3517 55.8512L29.0739 61.1869L29.4311 60.2014L29.7931 60.3326L28.1749 64.7975Z" fill="#FEFAF0"/>
<path d="M28.2275 53.4024L28.5391 52.866L27.1147 52.0386C25.9431 51.3581 25.1206 50.9711 24.6472 50.8775C24.1686 50.7645 23.8219 50.8929 23.607 51.2629C23.478 51.4849 23.4215 51.7242 23.4374 51.9808C23.4481 52.2179 23.5583 52.3974 23.7679 52.5191C23.9652 52.6337 24.1902 52.7149 24.4428 52.7627L24.7114 52.3003C25.0277 52.352 25.3708 52.4854 25.7408 52.7003C26.0984 52.908 26.3234 53.2448 26.4156 53.7107C26.4955 54.1694 26.3993 54.6331 26.1271 55.1017C25.5111 56.1623 24.6913 56.3953 23.6677 55.8008C22.1509 54.9197 22.141 53.1905 23.6381 50.613C24.4905 49.1455 25.3307 48.2811 26.1587 48.0198C26.9815 47.7391 28.0588 47.9855 29.3907 48.7591L33.1458 50.9403C33.7871 51.3128 34.2116 51.3202 34.4194 50.9626C34.6629 50.5433 34.1711 49.9277 32.9438 49.1159L33.1235 48.8492C34.1801 49.5289 34.808 50.1658 35.0072 50.7598C35.2064 51.3538 35.0697 52.0578 34.5969 52.8717C33.7373 54.3516 32.7868 54.9374 31.7452 54.6294C32.1208 55.0619 32.3264 55.5029 32.3621 55.9525C32.3978 56.4021 32.2366 56.9352 31.8785 57.5518C30.8183 59.3769 29.5422 59.8562 28.05 58.9894C27.1744 58.4808 26.7768 57.7881 26.8573 56.9113C26.9327 56.0149 27.3894 54.8453 28.2275 53.4024ZM30.073 55.464C30.7142 55.8365 31.1453 56.0456 31.3661 56.0914C31.594 56.1248 31.7617 56.0491 31.8692 55.8641C31.9838 55.6668 31.9335 55.3984 31.7183 55.059C31.498 54.7001 31.1103 54.3595 30.5554 54.0372L28.835 53.0379L28.7598 53.1674C28.3157 53.932 28.6548 54.6402 29.777 55.2921L30.073 55.464Z" fill="#FEFAF0"/>
<path d="M27.2733 45.2927L26.9756 45.0484L30.9113 40.2528L31.209 40.4971L30.4761 41.3901L37.4455 44.0933L33.5297 37.6694L32.6204 38.7773L32.3227 38.533L34.2363 36.2014L34.5339 36.4457L33.8554 37.2725L40.2307 47.6798C40.9684 48.8941 41.3558 49.8946 41.3927 50.6814C41.4407 51.4772 41.1978 52.2003 40.6639 52.8507C40.1301 53.5012 39.5606 53.8916 38.9553 54.0222C38.35 54.1527 37.8159 54.028 37.3529 53.648C36.8899 53.268 36.6366 52.8572 36.5931 52.4156C36.5496 51.974 36.6907 51.5548 37.0164 51.1579C37.7674 50.2429 38.5232 50.0976 39.2839 50.7218C39.4493 50.8576 39.6206 51.0535 39.7978 51.3096L39.3228 51.8884C39.504 52.1847 39.7044 52.3676 39.924 52.4372C40.1437 52.5068 40.3485 52.4258 40.5385 52.1943C40.9095 51.7423 41.0137 51.1544 40.8512 50.4307C40.6998 49.716 40.2977 48.8233 39.6451 47.7527L38.9184 46.5474L37.7241 48.0027L27.8297 44.6147L27.2733 45.2927Z" fill="#FEFAF0"/>
<path d="M47.7936 24.4349L52.4309 22.1819L53.291 23.9521C53.0786 22.438 53.6907 21.3319 55.1274 20.6339C56.577 19.9296 57.7922 20.1954 58.7732 21.4312C58.549 19.8277 59.1553 18.6769 60.592 17.9788C62.4777 17.0627 63.941 17.6757 64.9818 19.8179L67.7958 25.6097L68.8733 25.0861L69.0416 25.4325L63.7116 28.0221L63.5434 27.6757L64.2168 27.3485L61.1785 21.095C60.7048 20.1201 60.3441 19.5898 60.0963 19.504C59.9819 19.4644 59.8606 19.4758 59.7323 19.5381C59.3603 19.7189 59.1548 20.128 59.1156 20.7654C59.0765 21.4028 59.2439 22.1063 59.6178 22.8759L62.2542 28.3021L62.9469 27.9655L63.1151 28.3119L58.17 30.7145L58.0018 30.3682L58.6752 30.0409L55.6369 23.7874C55.1632 22.8125 54.8025 22.2822 54.5547 22.1964C54.4404 22.1569 54.319 22.1683 54.1908 22.2306C53.8316 22.4051 53.6385 22.8398 53.6114 23.5348C53.591 24.2106 53.7646 24.927 54.1323 25.6838L56.7126 30.9945L57.4053 30.658L57.5736 31.0043L52.2436 33.5939L52.0753 33.2476L53.1336 32.7334L49.0202 24.2671L47.9619 24.7812L47.7936 24.4349Z" fill="#FEFAF0"/>
<path d="M73.2894 20.6191L72.8674 18.8504C72.5463 17.5048 72.2366 16.545 71.9384 15.971C71.6507 15.3799 71.2433 15.1472 70.7161 15.273C70.4109 15.3458 70.1828 15.4956 70.0316 15.7223C69.891 15.9317 69.827 16.2476 69.8398 16.6697C69.8639 17.3238 70.0282 18.2889 70.3328 19.5652L70.7201 21.1882C71.0809 22.7003 71.3393 23.599 71.4954 23.8843C71.6653 24.1663 71.822 24.3928 71.9654 24.5639C72.1975 24.8604 72.5355 24.9557 72.9794 24.8498C73.5204 24.7207 73.7996 24.3241 73.8172 23.6602C73.8361 23.1865 73.6602 22.1728 73.2894 20.6191ZM73.0271 25.2342C71.2931 25.648 69.8763 25.5169 68.7766 24.841C67.6769 24.165 66.9301 23.0016 66.5362 21.3508C66.139 19.6862 66.3061 18.2974 67.0375 17.1845C67.7796 16.0544 69.0106 15.2841 70.7308 14.8736C72.4509 14.4631 73.8334 14.5731 74.8782 15.2035C75.9198 15.8201 76.6424 16.9745 77.0463 18.6669C77.8904 22.2043 76.5507 24.3934 73.0271 25.2342Z" fill="#FEFAF0"/>
<path d="M79.0449 20.7487L78.448 14.0365L77.276 14.1407L77.2419 13.7572L78.4139 13.653L78.1694 10.9042L82.0456 9.57152L82.3773 13.3005L85.1473 13.0541L85.1815 13.4377L82.4114 13.684L83.05 20.865C83.1094 21.5326 83.2169 22.017 83.3725 22.3182C83.5424 22.6181 83.8404 22.7491 84.2665 22.7112C84.6927 22.6733 85.0431 22.4273 85.3177 21.9734C85.6066 21.5182 85.7678 20.9168 85.8016 20.1692L86.1676 20.1796C86.1412 21.1699 85.8981 21.979 85.4385 22.6069C84.9776 23.2207 84.1577 23.5799 82.9786 23.6848C81.7995 23.7897 80.8766 23.6355 80.2099 23.2223C79.5432 22.8091 79.1549 21.9845 79.0449 20.7487Z" fill="#FEFAF0"/>
<path d="M87.7576 6.95458L92.9021 7.29247L92.389 15.1053C92.6596 14.4656 93.0429 13.962 93.5387 13.5943C94.0345 13.2267 94.7591 13.0742 95.7126 13.1369C97.9184 13.2817 98.9432 14.5425 98.7872 16.919L98.3651 23.3443L99.5605 23.4228L99.5353 23.8071L93.4942 23.4103L93.5195 23.0261L94.3947 23.0835L94.8504 16.1459C94.9064 15.2921 94.8855 14.7404 94.7875 14.491C94.6905 14.2274 94.4926 14.0858 94.1937 14.0661C93.7383 14.0362 93.3131 14.3084 92.9181 14.8828C92.5373 15.458 92.3189 16.1726 92.2628 17.0265L91.8758 22.9181L92.7937 22.9784L92.7685 23.3626L86.7061 22.9644L86.7313 22.5802L87.9054 22.6573L88.9064 7.41593L87.7324 7.33881L87.7576 6.95458Z" fill="#FEFAF0"/>
<path d="M103.293 24.9354C101.503 24.5084 100.267 23.7295 99.5835 22.5988C98.9174 21.4575 98.7797 20.0684 99.1703 18.4314C99.5642 16.7807 100.365 15.6375 101.572 15.0018C102.793 14.3695 104.181 14.2388 105.735 14.6095C108.884 15.3609 110.018 17.3032 109.139 20.4362L103.271 19.036L103.077 19.8475C102.753 21.207 102.681 22.2749 102.862 23.0513C103.044 23.8277 103.564 24.3185 104.424 24.5237C106.034 24.9077 107.293 24.2992 108.203 22.6982L108.563 22.85C108.061 23.7859 107.397 24.4485 106.571 24.8379C105.759 25.2306 104.666 25.2631 103.293 24.9354ZM103.391 18.6248L105.534 19.1362L105.777 18.1166C106.046 16.993 106.158 16.2135 106.116 15.7781C106.09 15.3321 105.876 15.0611 105.474 14.9651C105.085 14.8725 104.741 15.0249 104.441 15.4225C104.158 15.8095 103.889 16.5371 103.634 17.6052L103.391 18.6248Z" fill="#FEFAF0"/>
<path d="M118.722 20.2046C118.234 20.0045 117.675 20.1455 117.046 20.6275C116.417 21.1095 115.924 21.786 115.567 22.6569L113.393 27.9619L114.798 28.5379L114.652 28.8942L108.476 26.3632L108.622 26.0069L109.711 26.4531L113.28 17.7434L112.192 17.2972L112.338 16.9409L117.108 18.8959L116.329 20.7962C116.777 20.1935 117.318 19.814 117.952 19.6578C118.592 19.4884 119.222 19.5308 119.842 19.785C120.462 20.0392 120.89 20.4228 121.127 20.936C121.382 21.4413 121.378 22.0173 121.113 22.6639C120.853 23.2974 120.508 23.7262 120.077 23.9503C119.646 24.1744 119.127 24.1621 118.52 23.9133C117.926 23.67 117.565 23.2908 117.437 22.776C117.322 22.2665 117.514 21.7053 118.011 21.0924L118.724 21.3845C119.33 20.8467 119.329 20.4534 118.722 20.2046Z" fill="#FEFAF0"/>
<path d="M123.116 22.5299L123.092 22.1747C124.673 22.0536 125.674 21.6122 126.095 20.8504C126.315 20.4508 126.27 20.133 125.961 19.8971L124.771 20.1936C124.57 19.9685 124.425 19.6849 124.336 19.343C124.267 18.9956 124.333 18.6407 124.533 18.2786C124.732 17.9165 125.045 17.6897 125.47 17.5984C125.902 17.4946 126.349 17.5701 126.811 17.825C127.285 18.0868 127.583 18.4627 127.703 18.9527C127.843 19.4371 127.758 19.9603 127.448 20.5222C126.773 21.746 125.329 22.4152 123.116 22.5299Z" fill="#FEFAF0"/>
<path d="M122.197 32.377L124.404 29.2477L124.614 29.3957C124.202 30.6234 124.108 31.622 124.333 32.3916C124.559 33.1612 125.056 33.8172 125.825 34.3597C127.014 35.1982 127.875 35.2386 128.41 34.4811C128.64 34.1547 128.667 33.8072 128.49 33.4386C128.217 32.8616 127.774 32.2525 127.161 31.6112C126.517 30.8425 126.05 30.0942 125.76 29.3665C125.415 28.4948 125.563 27.6045 126.204 26.6954C126.846 25.7864 127.635 25.2611 128.572 25.1195C129.518 24.9663 130.457 25.2185 131.39 25.8761C131.961 26.2789 132.455 26.828 132.872 27.5235C133.027 27.7729 133.163 27.9387 133.28 28.0209C133.397 28.1031 133.524 28.1322 133.663 28.1082C133.803 28.0841 134.009 28.0025 134.281 27.8632L134.474 27.9989L132.587 30.6736L132.377 30.5256C132.852 28.5913 132.465 27.1844 131.218 26.3049C130.67 25.9185 130.193 25.7299 129.785 25.739C129.385 25.7364 129.083 25.8808 128.877 26.1721C128.754 26.3469 128.696 26.5156 128.704 26.678C128.719 26.8288 128.734 26.9439 128.748 27.0234C128.762 27.1029 128.8 27.2088 128.864 27.341C128.936 27.4616 128.995 27.5641 129.04 27.6483C129.094 27.721 129.174 27.8299 129.281 27.9752C129.399 28.1287 129.49 28.2359 129.551 28.2969C130.204 29.0539 130.652 29.6315 130.895 30.0296C131.146 30.4161 131.354 30.8252 131.521 31.2569C131.85 32.1519 131.665 33.0947 130.966 34.0853C130.276 35.0643 129.458 35.6047 128.514 35.7065C127.578 35.7966 126.603 35.4841 125.589 34.769C124.866 34.2593 124.286 33.5972 123.848 32.7824C123.774 32.5905 123.696 32.4658 123.615 32.4083C123.358 32.2275 122.956 32.2663 122.407 32.5249L122.197 32.377Z" fill="#FEFAF0"/>
<path d="M139.156 40.7505C138.038 41.7461 137.344 42.4684 137.075 42.9174C136.817 43.357 136.826 43.7312 137.101 44.0402C137.385 44.3598 137.766 44.5082 138.242 44.4854C138.727 44.4733 139.242 44.2254 139.785 43.7419L143.269 40.6414C143.727 40.2337 144.035 39.7971 144.194 39.3316C144.352 38.866 144.275 38.4574 143.962 38.1059C143.649 37.7543 143.201 37.7232 142.619 38.0125C142.036 38.3019 141.159 38.968 139.987 40.011L139.156 40.7505ZM137.797 45.8838L138.759 44.7125C137.584 45.1088 136.504 44.753 135.518 43.645C134.702 42.7288 134.397 41.7211 134.603 40.6219C134.818 39.5333 135.58 38.4059 136.891 37.2397C139.543 34.8788 141.808 34.7531 143.686 36.8625C144.52 37.8 144.809 38.6502 144.552 39.4131L149.267 35.2175L148.399 34.2427L148.687 33.9867L152.242 37.9818L140.545 48.3924L141.242 49.1754L140.954 49.4314L137.797 45.8838Z" fill="#FEFAF0"/>
<path d="M147.501 50.9781L147.826 51.5064L149.229 50.6426C150.382 49.9322 151.112 49.3905 151.419 49.0176C151.745 48.6494 151.795 48.2831 151.571 47.9188C151.436 47.7002 151.252 47.5372 151.019 47.4299C150.805 47.3272 150.594 47.3394 150.388 47.4665C150.194 47.5862 150.016 47.746 149.854 47.946L150.135 48.4014C149.939 48.6556 149.66 48.8948 149.295 49.1192C148.943 49.3361 148.54 49.375 148.086 49.2359C147.644 49.0893 147.281 48.7853 146.997 48.3239C146.354 47.2795 146.536 46.447 147.544 45.8263C149.038 44.9065 150.566 45.7155 152.129 48.2536C153.019 49.6987 153.383 50.8478 153.222 51.7008C153.08 52.5586 152.353 53.3913 151.042 54.199L147.344 56.4761C146.713 56.865 146.505 57.2355 146.722 57.5877C146.976 58.0006 147.751 57.8583 149.047 57.1609L149.197 57.4453C148.099 58.0549 147.241 58.3069 146.623 58.2015C146.005 58.0962 145.45 57.6427 144.956 56.8413C144.059 55.384 143.992 54.2694 144.756 53.4974C144.197 53.6237 143.712 53.5963 143.298 53.4152C142.885 53.2341 142.492 52.8399 142.118 52.2327C141.011 50.4355 141.193 49.0844 142.662 48.1795C143.524 47.6485 144.323 47.6259 145.057 48.1115C145.811 48.6017 146.626 49.5573 147.501 50.9781ZM144.812 51.6292C144.18 52.0181 143.792 52.299 143.647 52.4719C143.51 52.6569 143.497 52.8405 143.609 53.0227C143.729 53.217 143.989 53.2996 144.39 53.2705C144.811 53.2461 145.294 53.0656 145.841 52.7291L147.535 51.6858L147.456 51.5583C146.992 50.8054 146.208 50.7692 145.103 51.4498L144.812 51.6292Z" fill="#FEFAF0"/>
<path d="M155.824 54.1052L156.181 53.9592L158.533 59.6996L158.177 59.8457L157.739 58.7767L152.051 63.6276L159.564 63.2306L159.021 61.9043L159.377 61.7583L160.521 64.5494L160.164 64.6954L159.759 63.7056L147.572 64.3764C146.153 64.4493 145.089 64.3153 144.379 63.9743C143.656 63.6388 143.135 63.0817 142.816 62.3031C142.496 61.5245 142.423 60.8378 142.596 60.2431C142.768 59.6484 143.131 59.2375 143.686 59.0104C144.24 58.7833 144.722 58.7554 145.131 58.9267C145.54 59.098 145.842 59.4213 146.037 59.8963C146.486 60.9916 146.255 61.7259 145.344 62.099C145.146 62.1802 144.893 62.2379 144.583 62.2723L144.299 61.5795C143.952 61.5983 143.696 61.6878 143.531 61.8481C143.365 62.0084 143.339 62.2272 143.453 62.5043C143.675 63.0453 144.143 63.4162 144.857 63.6167C145.558 63.8227 146.534 63.8926 147.786 63.8264L149.192 63.7589L148.478 62.017L156.157 54.9168L155.824 54.1052Z" fill="#FEFAF0"/>
</svg>
